<mxfile host="Electron" agent="Mozilla/5.0 (Macintosh; Intel Mac OS X 10_15_7) AppleWebKit/537.36 (KHTML, like Gecko) draw.io/25.0.2 Chrome/128.0.6613.186 Electron/32.2.5 Safari/537.36" version="25.0.2" pages="3">
  <diagram name="Page-1" id="MZZVJtx8VEF6yf0xD2RR">
    <mxGraphModel dx="857" dy="567" grid="1" gridSize="10" guides="1" tooltips="1" connect="1" arrows="1" fold="1" page="1" pageScale="1" pageWidth="827" pageHeight="1169" math="0" shadow="0">
      <root>
        <mxCell id="0" />
        <mxCell id="1" parent="0" />
        <mxCell id="hG-sblH6Zxb9lWqoOM5P-5" style="edgeStyle=orthogonalEdgeStyle;rounded=0;orthogonalLoop=1;jettySize=auto;html=1;" edge="1" parent="1" source="hG-sblH6Zxb9lWqoOM5P-1" target="hG-sblH6Zxb9lWqoOM5P-3">
          <mxGeometry relative="1" as="geometry" />
        </mxCell>
        <mxCell id="hG-sblH6Zxb9lWqoOM5P-1" value="Node1&lt;div&gt;tool&lt;/div&gt;" style="rounded=0;whiteSpace=wrap;html=1;fontStyle=1;fontSize=15;" vertex="1" parent="1">
          <mxGeometry x="300" y="280" width="100" height="50" as="geometry" />
        </mxCell>
        <mxCell id="hG-sblH6Zxb9lWqoOM5P-4" style="edgeStyle=orthogonalEdgeStyle;rounded=0;orthogonalLoop=1;jettySize=auto;html=1;entryX=0.5;entryY=0;entryDx=0;entryDy=0;" edge="1" parent="1" source="hG-sblH6Zxb9lWqoOM5P-2" target="hG-sblH6Zxb9lWqoOM5P-1">
          <mxGeometry relative="1" as="geometry" />
        </mxCell>
        <mxCell id="hG-sblH6Zxb9lWqoOM5P-2" value="START" style="rounded=1;whiteSpace=wrap;html=1;arcSize=50;" vertex="1" parent="1">
          <mxGeometry x="290" y="210" width="120" height="40" as="geometry" />
        </mxCell>
        <mxCell id="hG-sblH6Zxb9lWqoOM5P-3" value="END" style="rounded=1;whiteSpace=wrap;html=1;arcSize=50;" vertex="1" parent="1">
          <mxGeometry x="290" y="360" width="120" height="40" as="geometry" />
        </mxCell>
        <mxCell id="hG-sblH6Zxb9lWqoOM5P-6" value="Agent" style="text;html=1;align=center;verticalAlign=middle;whiteSpace=wrap;rounded=0;fontStyle=1;fontSize=18;" vertex="1" parent="1">
          <mxGeometry x="320" y="150" width="60" height="30" as="geometry" />
        </mxCell>
      </root>
    </mxGraphModel>
  </diagram>
  <diagram id="Pk88kziEGhZvHbHQadh6" name="Page-2">
    <mxGraphModel dx="1035" dy="685" grid="1" gridSize="10" guides="1" tooltips="1" connect="1" arrows="1" fold="1" page="1" pageScale="1" pageWidth="827" pageHeight="1169" math="0" shadow="0">
      <root>
        <mxCell id="0" />
        <mxCell id="1" parent="0" />
        <mxCell id="HPi2RszJsu7qrhVIyLSA-9" value="" style="rounded=0;whiteSpace=wrap;html=1;fillColor=#fff2cc;strokeColor=#d6b656;" vertex="1" parent="1">
          <mxGeometry x="180" y="200" width="360" height="225" as="geometry" />
        </mxCell>
        <mxCell id="HPi2RszJsu7qrhVIyLSA-1" value="&lt;font style=&quot;font-size: 16px;&quot;&gt;Tool&lt;/font&gt;&lt;div&gt;(function)&lt;/div&gt;" style="rounded=0;whiteSpace=wrap;html=1;fontStyle=1" vertex="1" parent="1">
          <mxGeometry x="420" y="230" width="100" height="60" as="geometry" />
        </mxCell>
        <mxCell id="HPi2RszJsu7qrhVIyLSA-3" style="edgeStyle=orthogonalEdgeStyle;rounded=0;orthogonalLoop=1;jettySize=auto;html=1;" edge="1" parent="1" source="HPi2RszJsu7qrhVIyLSA-2" target="HPi2RszJsu7qrhVIyLSA-1">
          <mxGeometry relative="1" as="geometry" />
        </mxCell>
        <mxCell id="HPi2RszJsu7qrhVIyLSA-2" value="Agent" style="rounded=0;whiteSpace=wrap;html=1;fontStyle=1;fontSize=17;" vertex="1" parent="1">
          <mxGeometry x="220" y="230" width="120" height="60" as="geometry" />
        </mxCell>
        <mxCell id="HPi2RszJsu7qrhVIyLSA-4" value="uses" style="text;html=1;align=center;verticalAlign=middle;whiteSpace=wrap;rounded=0;fontStyle=1;fontSize=14;" vertex="1" parent="1">
          <mxGeometry x="353.5" y="230" width="60" height="30" as="geometry" />
        </mxCell>
        <mxCell id="HPi2RszJsu7qrhVIyLSA-5" value="LLM" style="shape=cylinder3;whiteSpace=wrap;html=1;boundedLbl=1;backgroundOutline=1;size=5.000000000000043;fontStyle=1;fontSize=15;" vertex="1" parent="1">
          <mxGeometry x="250" y="120" width="60" height="60" as="geometry" />
        </mxCell>
        <mxCell id="HPi2RszJsu7qrhVIyLSA-6" style="edgeStyle=orthogonalEdgeStyle;rounded=0;orthogonalLoop=1;jettySize=auto;html=1;entryX=0.5;entryY=1;entryDx=0;entryDy=0;entryPerimeter=0;" edge="1" parent="1" source="HPi2RszJsu7qrhVIyLSA-2" target="HPi2RszJsu7qrhVIyLSA-5">
          <mxGeometry relative="1" as="geometry" />
        </mxCell>
        <mxCell id="HPi2RszJsu7qrhVIyLSA-8" style="edgeStyle=orthogonalEdgeStyle;rounded=0;orthogonalLoop=1;jettySize=auto;html=1;entryX=0.5;entryY=1;entryDx=0;entryDy=0;" edge="1" parent="1" source="HPi2RszJsu7qrhVIyLSA-7" target="HPi2RszJsu7qrhVIyLSA-2">
          <mxGeometry relative="1" as="geometry" />
        </mxCell>
        <mxCell id="HPi2RszJsu7qrhVIyLSA-7" value="Task" style="rounded=0;whiteSpace=wrap;html=1;fontStyle=1;fontSize=17;" vertex="1" parent="1">
          <mxGeometry x="220" y="330" width="120" height="60" as="geometry" />
        </mxCell>
        <mxCell id="HPi2RszJsu7qrhVIyLSA-10" value="Crew" style="text;html=1;align=center;verticalAlign=middle;whiteSpace=wrap;rounded=0;fontStyle=1;fontSize=16;" vertex="1" parent="1">
          <mxGeometry x="180" y="425" width="360" height="35" as="geometry" />
        </mxCell>
      </root>
    </mxGraphModel>
  </diagram>
  <diagram id="JH4PD0P9EYRu0PkV5Wzg" name="Page-3">
    <mxGraphModel dx="2601" dy="1174" grid="1" gridSize="10" guides="1" tooltips="1" connect="1" arrows="1" fold="1" page="1" pageScale="1" pageWidth="827" pageHeight="1169" math="0" shadow="0">
      <root>
        <mxCell id="0" />
        <mxCell id="1" parent="0" />
        <mxCell id="GE2vEvvh6lHDMjpV7sb0-26" value="" style="rounded=0;whiteSpace=wrap;html=1;" vertex="1" parent="1">
          <mxGeometry x="-152" y="600" width="1150" height="270" as="geometry" />
        </mxCell>
        <mxCell id="GE2vEvvh6lHDMjpV7sb0-1" value="" style="rounded=0;whiteSpace=wrap;html=1;" vertex="1" parent="1">
          <mxGeometry x="140" y="60" width="540" height="350" as="geometry" />
        </mxCell>
        <mxCell id="GE2vEvvh6lHDMjpV7sb0-2" value="Financial Advisor" style="text;html=1;align=center;verticalAlign=middle;whiteSpace=wrap;rounded=0;fontSize=20;fontStyle=1" vertex="1" parent="1">
          <mxGeometry x="300" y="90" width="210" height="30" as="geometry" />
        </mxCell>
        <mxCell id="GE2vEvvh6lHDMjpV7sb0-3" value="Get your financial queries answered" style="text;html=1;align=center;verticalAlign=middle;whiteSpace=wrap;rounded=0;fontSize=16;fontStyle=1" vertex="1" parent="1">
          <mxGeometry x="270" y="120" width="280" height="30" as="geometry" />
        </mxCell>
        <mxCell id="GE2vEvvh6lHDMjpV7sb0-4" value="" style="rounded=0;whiteSpace=wrap;html=1;" vertex="1" parent="1">
          <mxGeometry x="256" y="350" width="315" height="40" as="geometry" />
        </mxCell>
        <mxCell id="GE2vEvvh6lHDMjpV7sb0-14" style="edgeStyle=orthogonalEdgeStyle;rounded=0;orthogonalLoop=1;jettySize=auto;html=1;" edge="1" parent="1" source="GE2vEvvh6lHDMjpV7sb0-5" target="GE2vEvvh6lHDMjpV7sb0-9">
          <mxGeometry relative="1" as="geometry" />
        </mxCell>
        <mxCell id="GE2vEvvh6lHDMjpV7sb0-5" value="get the stock related information" style="rounded=0;whiteSpace=wrap;html=1;fontStyle=1;fontSize=17;" vertex="1" parent="1">
          <mxGeometry x="248" y="640" width="390" height="50" as="geometry" />
        </mxCell>
        <mxCell id="GE2vEvvh6lHDMjpV7sb0-6" value="Agent" style="rounded=0;whiteSpace=wrap;html=1;" vertex="1" parent="1">
          <mxGeometry x="208" y="650" width="60" height="30" as="geometry" />
        </mxCell>
        <mxCell id="GE2vEvvh6lHDMjpV7sb0-12" style="edgeStyle=orthogonalEdgeStyle;rounded=0;orthogonalLoop=1;jettySize=auto;html=1;" edge="1" parent="1" source="GE2vEvvh6lHDMjpV7sb0-7" target="GE2vEvvh6lHDMjpV7sb0-10">
          <mxGeometry relative="1" as="geometry" />
        </mxCell>
        <mxCell id="GE2vEvvh6lHDMjpV7sb0-13" style="edgeStyle=orthogonalEdgeStyle;rounded=0;orthogonalLoop=1;jettySize=auto;html=1;entryX=0;entryY=0.5;entryDx=0;entryDy=0;" edge="1" parent="1" source="GE2vEvvh6lHDMjpV7sb0-7" target="GE2vEvvh6lHDMjpV7sb0-11">
          <mxGeometry relative="1" as="geometry" />
        </mxCell>
        <mxCell id="GE2vEvvh6lHDMjpV7sb0-7" value="technical analysis and financial analysis" style="rounded=0;whiteSpace=wrap;html=1;fontStyle=1;fontSize=17;" vertex="1" parent="1">
          <mxGeometry x="248" y="720" width="390" height="50" as="geometry" />
        </mxCell>
        <mxCell id="GE2vEvvh6lHDMjpV7sb0-8" value="Agent" style="rounded=0;whiteSpace=wrap;html=1;" vertex="1" parent="1">
          <mxGeometry x="208" y="730" width="60" height="30" as="geometry" />
        </mxCell>
        <mxCell id="GE2vEvvh6lHDMjpV7sb0-9" value="get_stock_info()" style="rounded=0;whiteSpace=wrap;html=1;fontStyle=1;fontSize=17;fillColor=#fff2cc;strokeColor=#d6b656;" vertex="1" parent="1">
          <mxGeometry x="678" y="640" width="240" height="50" as="geometry" />
        </mxCell>
        <mxCell id="GE2vEvvh6lHDMjpV7sb0-10" value="get_technical_analysis()" style="rounded=0;whiteSpace=wrap;html=1;fontStyle=1;fontSize=17;fillColor=#fff2cc;strokeColor=#d6b656;" vertex="1" parent="1">
          <mxGeometry x="678" y="720" width="240" height="50" as="geometry" />
        </mxCell>
        <mxCell id="GE2vEvvh6lHDMjpV7sb0-11" value="get_fundamental_analysis()" style="rounded=0;whiteSpace=wrap;html=1;fontStyle=1;fontSize=17;fillColor=#fff2cc;strokeColor=#d6b656;" vertex="1" parent="1">
          <mxGeometry x="678" y="780" width="240" height="50" as="geometry" />
        </mxCell>
        <mxCell id="GE2vEvvh6lHDMjpV7sb0-21" style="edgeStyle=orthogonalEdgeStyle;rounded=0;orthogonalLoop=1;jettySize=auto;html=1;" edge="1" parent="1" source="GE2vEvvh6lHDMjpV7sb0-15" target="GE2vEvvh6lHDMjpV7sb0-6">
          <mxGeometry relative="1" as="geometry" />
        </mxCell>
        <mxCell id="GE2vEvvh6lHDMjpV7sb0-15" value="get_stock_info" style="rounded=0;whiteSpace=wrap;html=1;fontStyle=1;fontSize=17;" vertex="1" parent="1">
          <mxGeometry x="-72" y="640" width="240" height="50" as="geometry" />
        </mxCell>
        <mxCell id="GE2vEvvh6lHDMjpV7sb0-16" value="Tool" style="rounded=0;whiteSpace=wrap;html=1;" vertex="1" parent="1">
          <mxGeometry x="908" y="650" width="60" height="30" as="geometry" />
        </mxCell>
        <mxCell id="GE2vEvvh6lHDMjpV7sb0-17" value="Tool" style="rounded=0;whiteSpace=wrap;html=1;" vertex="1" parent="1">
          <mxGeometry x="908" y="730" width="60" height="30" as="geometry" />
        </mxCell>
        <mxCell id="GE2vEvvh6lHDMjpV7sb0-18" value="Tool" style="rounded=0;whiteSpace=wrap;html=1;" vertex="1" parent="1">
          <mxGeometry x="908" y="790" width="60" height="30" as="geometry" />
        </mxCell>
        <mxCell id="GE2vEvvh6lHDMjpV7sb0-20" style="edgeStyle=orthogonalEdgeStyle;rounded=0;orthogonalLoop=1;jettySize=auto;html=1;entryX=0;entryY=0.5;entryDx=0;entryDy=0;" edge="1" parent="1" source="GE2vEvvh6lHDMjpV7sb0-19" target="GE2vEvvh6lHDMjpV7sb0-8">
          <mxGeometry relative="1" as="geometry" />
        </mxCell>
        <mxCell id="GE2vEvvh6lHDMjpV7sb0-19" value="get_technical_info" style="rounded=0;whiteSpace=wrap;html=1;fontStyle=1;fontSize=17;" vertex="1" parent="1">
          <mxGeometry x="-72" y="720" width="240" height="50" as="geometry" />
        </mxCell>
        <mxCell id="GE2vEvvh6lHDMjpV7sb0-22" value="Agent" style="rounded=0;whiteSpace=wrap;html=1;" vertex="1" parent="1">
          <mxGeometry x="208" y="730" width="60" height="30" as="geometry" />
        </mxCell>
        <mxCell id="GE2vEvvh6lHDMjpV7sb0-24" value="Task" style="rounded=0;whiteSpace=wrap;html=1;" vertex="1" parent="1">
          <mxGeometry x="-122" y="730" width="60" height="30" as="geometry" />
        </mxCell>
        <mxCell id="GE2vEvvh6lHDMjpV7sb0-25" value="Task" style="rounded=0;whiteSpace=wrap;html=1;" vertex="1" parent="1">
          <mxGeometry x="-122" y="650" width="60" height="30" as="geometry" />
        </mxCell>
        <mxCell id="GE2vEvvh6lHDMjpV7sb0-27" value="Crew" style="rounded=0;whiteSpace=wrap;html=1;" vertex="1" parent="1">
          <mxGeometry x="-172" y="820" width="60" height="30" as="geometry" />
        </mxCell>
      </root>
    </mxGraphModel>
  </diagram>
</mxfile>
